<svg width="115" height="176" viewBox="0 0 115 176" fill="none" xmlns="http://www.w3.org/2000/svg">
<path d="M37.8333 154.236C37.8333 166.041 29.4181 175.499 19.1666 175.499C8.91514 175.499 0.5 166.041 0.5 154.236C0.5 142.431 8.91514 132.972 19.1666 132.972C29.4181 132.972 37.8333 142.431 37.8333 154.236Z" stroke="black" stroke-opacity="0.2"/>
<path d="M37.8333 109.765C37.8333 122.114 29.3998 131.975 19.1666 131.975C8.93347 131.975 0.5 122.114 0.5 109.765C0.5 97.4165 8.93347 87.5557 19.1666 87.5557C29.3998 87.5557 37.8333 97.4165 37.8333 109.765Z" stroke="black" stroke-opacity="0.2"/>
<path d="M37.8333 65.2913C37.8333 77.0964 29.4181 86.5548 19.1666 86.5548C8.91514 86.5548 0.5 77.0964 0.5 65.2913C0.5 53.4862 8.91514 44.0278 19.1666 44.0278C29.4181 44.0278 37.8333 53.4862 37.8333 65.2913Z" stroke="black" stroke-opacity="0.2"/>
<path d="M37.8333 21.7635C37.8333 33.5686 29.4181 43.027 19.1666 43.027C8.91514 43.027 0.5 33.5686 0.5 21.7635C0.5 9.9584 8.91514 0.5 19.1666 0.5C29.4181 0.5 37.8333 9.9584 37.8333 21.7635Z" stroke="black" stroke-opacity="0.2"/>
<path d="M76.1668 154.236C76.1668 166.041 67.7516 175.499 57.5001 175.499C47.2486 175.499 38.8335 166.041 38.8335 154.236C38.8335 142.431 47.2486 132.972 57.5001 132.972C67.7516 132.972 76.1668 142.431 76.1668 154.236Z" stroke="black" stroke-opacity="0.2"/>
<path d="M76.1668 109.765C76.1668 122.114 67.7333 131.975 57.5001 131.975C47.267 131.975 38.8335 122.114 38.8335 109.765C38.8335 97.4165 47.267 87.5557 57.5001 87.5557C67.7333 87.5557 76.1668 97.4165 76.1668 109.765Z" stroke="black" stroke-opacity="0.2"/>
<path d="M76.1668 65.2913C76.1668 77.0964 67.7516 86.5548 57.5001 86.5548C47.2486 86.5548 38.8335 77.0964 38.8335 65.2913C38.8335 53.4862 47.2486 44.0278 57.5001 44.0278C67.7516 44.0278 76.1668 53.4862 76.1668 65.2913Z" stroke="black" stroke-opacity="0.2"/>
<path d="M76.1667 21.7635C76.1667 33.5686 67.7516 43.027 57.5001 43.027C47.2486 43.027 38.8334 33.5686 38.8334 21.7635C38.8334 9.9584 47.2486 0.5 57.5001 0.5C67.7516 0.5 76.1667 9.9584 76.1667 21.7635Z" stroke="black" stroke-opacity="0.2"/>
<path d="M114.5 154.236C114.5 166.041 106.085 175.499 95.8331 175.499C85.5816 175.499 77.1665 166.041 77.1665 154.236C77.1665 142.431 85.5816 132.972 95.8331 132.972C106.085 132.972 114.5 142.431 114.5 154.236Z" stroke="black" stroke-opacity="0.2"/>
<path d="M114.5 109.765C114.5 122.114 106.066 131.975 95.8331 131.975C85.6 131.975 77.1665 122.114 77.1665 109.765C77.1665 97.4165 85.6 87.5557 95.8331 87.5557C106.066 87.5557 114.5 97.4165 114.5 109.765Z" stroke="black" stroke-opacity="0.2"/>
<path d="M114.5 65.2913C114.5 77.0964 106.085 86.5548 95.8331 86.5548C85.5816 86.5548 77.1665 77.0964 77.1665 65.2913C77.1665 53.4862 85.5816 44.0278 95.8331 44.0278C106.085 44.0278 114.5 53.4862 114.5 65.2913Z" stroke="black" stroke-opacity="0.2"/>
<path d="M114.5 21.7635C114.5 33.5686 106.085 43.027 95.8332 43.027C85.5817 43.027 77.1666 33.5686 77.1666 21.7635C77.1666 9.9584 85.5817 0.5 95.8332 0.5C106.085 0.5 114.5 9.9584 114.5 21.7635Z" stroke="black" stroke-opacity="0.2"/>
</svg>
