<svg width="115" height="175" viewBox="0 0 115 175" fill="none" xmlns="http://www.w3.org/2000/svg">
<mask id="mask0_423_262" style="mask-type:alpha" maskUnits="userSpaceOnUse" x="0" y="0" width="115" height="175">
<rect width="115" height="175" fill="white"/>
</mask>
<g mask="url(#mask0_423_262)">
<path d="M15.1401 113.565C15.1401 123.576 7.12047 131.682 -2.75991 131.682C-12.6403 131.682 -20.6599 123.576 -20.6599 113.565C-20.6599 103.553 -12.6403 95.4478 -2.75991 95.4478C7.12047 95.4478 15.1401 103.553 15.1401 113.565Z" stroke="black" stroke-opacity="0.2"/>
<path d="M89.6606 123.803C89.6606 133.814 81.641 141.92 71.7606 141.92C61.8802 141.92 53.8606 133.814 53.8606 123.803C53.8606 113.792 61.8802 105.686 71.7606 105.686C81.641 105.686 89.6606 113.792 89.6606 123.803Z" stroke="black" stroke-opacity="0.2"/>
<path d="M55.6194 14.8937C55.6194 35.7009 38.95 52.5585 18.3994 52.5585C-2.15108 52.5585 -18.8206 35.7009 -18.8206 14.8937C-18.8206 -5.91364 -2.15108 -22.7712 18.3994 -22.7712C38.95 -22.7712 55.6194 -5.91364 55.6194 14.8937Z" stroke="black" stroke-opacity="0.2"/>
<path d="M108.06 160.106C108.06 164.463 104.572 167.984 100.28 167.984C95.989 167.984 92.5002 164.463 92.5002 160.106C92.5002 155.75 95.989 152.229 100.28 152.229C104.572 152.229 108.06 155.75 108.06 160.106Z" stroke="black" stroke-opacity="0.2"/>
<path d="M86.8998 53.0578C86.8998 57.4141 83.4111 60.9355 79.1198 60.9355C74.8286 60.9355 71.3398 57.4141 71.3398 53.0578C71.3398 48.7016 74.8286 45.1802 79.1198 45.1802C83.4111 45.1802 86.8998 48.7016 86.8998 53.0578Z" stroke="black" stroke-opacity="0.2"/>
<path d="M125.54 19.0825C125.54 26.2663 119.786 32.0799 112.7 32.0799C105.614 32.0799 99.8601 26.2663 99.8601 19.0825C99.8601 11.8988 105.614 6.08521 112.7 6.08521C119.786 6.08521 125.54 11.8988 125.54 19.0825Z" stroke="black" stroke-opacity="0.2"/>
<path d="M58.38 174.534C58.38 188.401 47.2712 199.633 33.58 199.633C19.8889 199.633 8.78003 188.401 8.78003 174.534C8.78003 160.667 19.8889 149.436 33.58 149.436C47.2712 149.436 58.38 160.667 58.38 174.534Z" stroke="black" stroke-opacity="0.2"/>
</g>
</svg>
