<svg width="100%" height="100%" viewBox="0 0 97 148" fill="none" xmlns="http://www.w3.org/2000/svg">
<path d="M5.01613 144.276C5.01613 145.559 3.99665 146.584 2.75806 146.584C1.51947 146.584 0.5 145.559 0.5 144.276C0.5 142.992 1.51947 141.967 2.75806 141.967C3.99665 141.967 5.01613 142.992 5.01613 144.276Z" stroke="black" stroke-opacity="0.2"/>
<path d="M5.01613 109.075C5.01613 110.358 3.99665 111.383 2.75806 111.383C1.51947 111.383 0.5 110.358 0.5 109.075C0.5 107.791 1.51947 106.766 2.75806 106.766C3.99665 106.766 5.01613 107.791 5.01613 109.075Z" stroke="black" stroke-opacity="0.2"/>
<path d="M5.01613 73.8742C5.01613 75.1577 3.99665 76.1827 2.75806 76.1827C1.51947 76.1827 0.5 75.1577 0.5 73.8742C0.5 72.5906 1.51947 71.5657 2.75806 71.5657C3.99665 71.5657 5.01613 72.5906 5.01613 73.8742Z" stroke="black" stroke-opacity="0.2"/>
<path d="M5.01613 38.6733C5.01613 39.9568 3.99665 40.9818 2.75806 40.9818C1.51947 40.9818 0.5 39.9568 0.5 38.6733C0.5 37.3897 1.51947 36.3647 2.75806 36.3647C3.99665 36.3647 5.01613 37.3897 5.01613 38.6733Z" stroke="black" stroke-opacity="0.2"/>
<path d="M5.01613 3.47453C5.01613 4.75806 3.99665 5.78304 2.75806 5.78304C1.51947 5.78304 0.5 4.75806 0.5 3.47453C0.5 2.19099 1.51947 1.16602 2.75806 1.16602C3.99665 1.16602 5.01613 2.19099 5.01613 3.47453Z" stroke="black" stroke-opacity="0.2"/>
<path d="M27.815 144.276C27.815 145.559 26.7955 146.584 25.5569 146.584C24.3183 146.584 23.2988 145.559 23.2988 144.276C23.2988 142.992 24.3183 141.967 25.5569 141.967C26.7955 141.967 27.815 142.992 27.815 144.276Z" stroke="black" stroke-opacity="0.2"/>
<path d="M27.815 109.075C27.815 110.358 26.7955 111.383 25.5569 111.383C24.3183 111.383 23.2988 110.358 23.2988 109.075C23.2988 107.791 24.3183 106.766 25.5569 106.766C26.7955 106.766 27.815 107.791 27.815 109.075Z" stroke="black" stroke-opacity="0.2"/>
<path d="M27.815 73.8742C27.815 75.1577 26.7955 76.1827 25.5569 76.1827C24.3183 76.1827 23.2988 75.1577 23.2988 73.8742C23.2988 72.5906 24.3183 71.5657 25.5569 71.5657C26.7955 71.5657 27.815 72.5906 27.815 73.8742Z" stroke="black" stroke-opacity="0.2"/>
<path d="M27.815 38.6733C27.815 39.9568 26.7955 40.9818 25.5569 40.9818C24.3183 40.9818 23.2988 39.9568 23.2988 38.6733C23.2988 37.3897 24.3183 36.3647 25.5569 36.3647C26.7955 36.3647 27.815 37.3897 27.815 38.6733Z" stroke="black" stroke-opacity="0.2"/>
<path d="M27.815 3.47453C27.815 4.75806 26.7955 5.78304 25.5569 5.78304C24.3183 5.78304 23.2988 4.75806 23.2988 3.47453C23.2988 2.19099 24.3183 1.16602 25.5569 1.16602C26.7955 1.16602 27.815 2.19099 27.815 3.47453Z" stroke="black" stroke-opacity="0.2"/>
<path d="M50.6157 144.276C50.6157 145.559 49.5963 146.584 48.3577 146.584C47.1191 146.584 46.0996 145.559 46.0996 144.276C46.0996 142.992 47.1191 141.967 48.3577 141.967C49.5963 141.967 50.6157 142.992 50.6157 144.276Z" stroke="black" stroke-opacity="0.2"/>
<path d="M50.6157 109.075C50.6157 110.358 49.5963 111.383 48.3577 111.383C47.1191 111.383 46.0996 110.358 46.0996 109.075C46.0996 107.791 47.1191 106.766 48.3577 106.766C49.5963 106.766 50.6157 107.791 50.6157 109.075Z" stroke="black" stroke-opacity="0.2"/>
<path d="M50.6157 73.8742C50.6157 75.1577 49.5963 76.1827 48.3577 76.1827C47.1191 76.1827 46.0996 75.1577 46.0996 73.8742C46.0996 72.5906 47.1191 71.5657 48.3577 71.5657C49.5963 71.5657 50.6157 72.5906 50.6157 73.8742Z" stroke="black" stroke-opacity="0.2"/>
<path d="M50.6157 38.6733C50.6157 39.9568 49.5963 40.9818 48.3577 40.9818C47.1191 40.9818 46.0996 39.9568 46.0996 38.6733C46.0996 37.3897 47.1191 36.3647 48.3577 36.3647C49.5963 36.3647 50.6157 37.3897 50.6157 38.6733Z" stroke="black" stroke-opacity="0.2"/>
<path d="M50.6157 3.47453C50.6157 4.75806 49.5963 5.78304 48.3577 5.78304C47.1191 5.78304 46.0996 4.75806 46.0996 3.47453C46.0996 2.19099 47.1191 1.16602 48.3577 1.16602C49.5963 1.16602 50.6157 2.19099 50.6157 3.47453Z" stroke="black" stroke-opacity="0.2"/>
<path d="M73.4155 144.276C73.4155 145.559 72.3961 146.584 71.1575 146.584C69.9189 146.584 68.8994 145.559 68.8994 144.276C68.8994 142.992 69.9189 141.967 71.1575 141.967C72.3961 141.967 73.4155 142.992 73.4155 144.276Z" stroke="black" stroke-opacity="0.2"/>
<path d="M73.4155 109.075C73.4155 110.358 72.3961 111.383 71.1575 111.383C69.9189 111.383 68.8994 110.358 68.8994 109.075C68.8994 107.791 69.9189 106.766 71.1575 106.766C72.3961 106.766 73.4155 107.791 73.4155 109.075Z" stroke="black" stroke-opacity="0.2"/>
<path d="M73.4155 73.8742C73.4155 75.1577 72.3961 76.1827 71.1575 76.1827C69.9189 76.1827 68.8994 75.1577 68.8994 73.8742C68.8994 72.5906 69.9189 71.5657 71.1575 71.5657C72.3961 71.5657 73.4155 72.5906 73.4155 73.8742Z" stroke="black" stroke-opacity="0.2"/>
<path d="M73.4155 38.6733C73.4155 39.9568 72.3961 40.9818 71.1575 40.9818C69.9189 40.9818 68.8994 39.9568 68.8994 38.6733C68.8994 37.3897 69.9189 36.3647 71.1575 36.3647C72.3961 36.3647 73.4155 37.3897 73.4155 38.6733Z" stroke="black" stroke-opacity="0.2"/>
<path d="M73.4155 3.47453C73.4155 4.75806 72.3961 5.78304 71.1575 5.78304C69.9189 5.78304 68.8994 4.75806 68.8994 3.47453C68.8994 2.19099 69.9189 1.16602 71.1575 1.16602C72.3961 1.16602 73.4155 2.19099 73.4155 3.47453Z" stroke="black" stroke-opacity="0.2"/>
<path d="M96.2153 144.276C96.2153 145.559 95.1959 146.584 93.9573 146.584C92.7187 146.584 91.6992 145.559 91.6992 144.276C91.6992 142.992 92.7187 141.967 93.9573 141.967C95.1959 141.967 96.2153 142.992 96.2153 144.276Z" stroke="black" stroke-opacity="0.2"/>
<path d="M96.2153 109.075C96.2153 110.358 95.1959 111.383 93.9573 111.383C92.7187 111.383 91.6992 110.358 91.6992 109.075C91.6992 107.791 92.7187 106.766 93.9573 106.766C95.1959 106.766 96.2153 107.791 96.2153 109.075Z" stroke="black" stroke-opacity="0.2"/>
<path d="M96.2153 73.8742C96.2153 75.1577 95.1959 76.1827 93.9573 76.1827C92.7187 76.1827 91.6992 75.1577 91.6992 73.8742C91.6992 72.5906 92.7187 71.5657 93.9573 71.5657C95.1959 71.5657 96.2153 72.5906 96.2153 73.8742Z" stroke="black" stroke-opacity="0.2"/>
<path d="M96.2153 38.6733C96.2153 39.9568 95.1959 40.9818 93.9573 40.9818C92.7187 40.9818 91.6992 39.9568 91.6992 38.6733C91.6992 37.3897 92.7187 36.3647 93.9573 36.3647C95.1959 36.3647 96.2153 37.3897 96.2153 38.6733Z" stroke="black" stroke-opacity="0.2"/>
<path d="M96.2153 3.47453C96.2153 4.75806 95.1959 5.78304 93.9573 5.78304C92.7187 5.78304 91.6992 4.75806 91.6992 3.47453C91.6992 2.19099 92.7187 1.16602 93.9573 1.16602C95.1959 1.16602 96.2153 2.19099 96.2153 3.47453Z" stroke="black" stroke-opacity="0.2"/>
</svg>
