<svg width="116" height="177" viewBox="0 0 116 177" fill="none" xmlns="http://www.w3.org/2000/svg">
<path d="M67.6666 0C67.6666 0 67.6666 4.4 67.6666 15.4C67.6666 26.4 71.5332 30.8 71.5332 46.2C71.5333 61.6 67.6666 72.6 67.6666 88C67.6666 103.4 71.5332 116.6 71.5332 127.6C71.5332 138.6 67.6657 147.4 67.6666 158.4C67.6674 169.4 67.6666 176 67.6666 176" stroke="black" stroke-opacity="0.2"/>
<path d="M89.9001 0.00195312C89.9001 0.00195312 89.9001 0.00195312 89.9001 10.9906C89.9001 21.9792 100.05 28.5724 100.05 43.9564C100.05 59.3405 89.9001 72.5268 89.9001 87.9109C89.9001 103.295 101.5 118.679 101.5 129.668C101.5 140.656 89.8988 156.04 89.9001 167.029C89.9014 178.018 89.9001 175.82 89.9001 175.82" stroke="black" stroke-opacity="0.2"/>
<path d="M48.3337 0C48.3337 0 48.3337 4.4 48.3337 15.4C48.3337 26.4 44.4671 30.8 44.467 46.2C44.4669 61.6 48.3337 72.6 48.3337 88C48.3337 103.4 44.467 116.6 44.467 127.6C44.467 138.6 48.3346 147.4 48.3337 158.4C48.3328 169.4 48.3337 176 48.3337 176" stroke="black" stroke-opacity="0.2"/>
<path d="M26.1002 0.00195312C26.1002 0.00195312 26.1002 0.00195312 26.1002 10.9906C26.1002 21.9792 15.9502 28.5724 15.9502 43.9564C15.9501 59.3405 26.1002 72.5268 26.1002 87.9109C26.1002 103.295 14.5002 118.679 14.5002 129.668C14.5002 140.656 26.1015 156.04 26.1002 167.029C26.0988 178.018 26.1002 175.82 26.1002 175.82" stroke="black" stroke-opacity="0.2"/>
</svg>
