<svg width="115" height="162" viewBox="0 0 115 162" fill="none" xmlns="http://www.w3.org/2000/svg">
<path d="M166.537 161.033C166.133 161.327 166.133 161.327 166.133 161.327C166.132 161.326 166.132 161.326 166.132 161.326C166.131 161.325 166.131 161.324 166.129 161.322C166.127 161.319 166.124 161.314 166.119 161.308C166.11 161.295 166.095 161.276 166.077 161.25C166.039 161.199 165.982 161.123 165.908 161.023C165.759 160.823 165.538 160.529 165.251 160.155C164.677 159.407 163.838 158.337 162.784 157.053C160.676 154.483 157.705 151.058 154.257 147.636C150.808 144.211 146.891 140.8 142.891 138.248C138.882 135.691 134.839 134.029 131.127 134.029L131.127 133.029C135.118 133.029 139.354 134.806 143.428 137.405C147.512 140.01 151.485 143.475 154.962 146.926C158.441 150.379 161.434 153.831 163.557 156.418C164.619 157.712 165.464 158.791 166.044 159.547C166.334 159.925 166.558 160.222 166.709 160.425C166.785 160.526 166.843 160.605 166.882 160.657C166.901 160.684 166.916 160.704 166.926 160.718C166.931 160.724 166.935 160.73 166.937 160.733C166.939 160.735 166.94 160.736 166.94 160.737C166.941 160.738 166.941 160.738 166.941 160.738C166.941 160.738 166.941 160.739 166.537 161.033ZM131.127 134.029C127.413 134.029 123.388 135.69 119.136 138.255C114.892 140.815 110.49 144.233 106.023 147.677C101.567 151.111 97.0482 154.57 92.6065 157.167C88.1693 159.762 83.7517 161.533 79.4975 161.533L79.4975 160.533C83.4878 160.533 87.7201 158.866 92.1017 156.304C96.4788 153.744 100.948 150.327 105.412 146.885C109.865 143.453 114.316 139.995 118.62 137.399C122.917 134.806 127.136 133.029 131.127 133.029L131.127 134.029ZM79.4975 161.533C75.246 161.533 70.7116 159.763 66.1206 157.171C61.5232 154.574 56.8108 151.118 52.2016 147.682C47.5807 144.238 43.0676 140.817 38.8317 138.255C34.5842 135.685 30.6972 134.029 27.3279 134.029L27.3279 133.029C30.9866 133.029 35.0737 134.812 39.3494 137.399C43.6367 139.993 48.1958 143.449 52.7992 146.88C57.4143 150.32 62.0783 153.739 66.6123 156.3C71.1527 158.864 75.5047 160.533 79.4975 160.533L79.4975 161.533ZM27.3279 134.029C23.947 134.029 19.5641 135.694 14.837 138.266C10.1285 140.828 5.14969 144.25 0.597886 147.68C-3.95201 151.11 -8.06523 154.54 -11.0415 157.114C-12.5294 158.4 -13.7326 159.472 -14.5634 160.222C-14.9788 160.597 -15.3011 160.892 -15.5193 161.092C-15.6284 161.192 -15.7115 161.269 -15.7672 161.321C-15.795 161.346 -15.816 161.366 -15.83 161.379C-15.837 161.385 -15.8422 161.39 -15.8457 161.394C-15.8474 161.395 -15.8487 161.396 -15.8495 161.397C-15.85 161.398 -15.8503 161.398 -15.8505 161.398C-15.8506 161.398 -15.8507 161.398 -16.1919 161.033C-16.5331 160.667 -16.5329 160.667 -16.5327 160.667C-16.5324 160.667 -16.5321 160.666 -16.5316 160.666C-16.5306 160.665 -16.5292 160.664 -16.5274 160.662C-16.5237 160.658 -16.5182 160.653 -16.511 160.647C-16.4965 160.633 -16.4751 160.613 -16.4467 160.587C-16.3901 160.535 -16.306 160.457 -16.1959 160.356C-15.9756 160.153 -15.6512 159.857 -15.2335 159.48C-14.3981 158.726 -13.1896 157.649 -11.6956 156.357C-8.70824 153.774 -4.57703 150.328 -0.00399705 146.882C4.56714 143.437 9.58981 139.982 14.359 137.388C19.1096 134.803 23.6807 133.029 27.3279 133.029L27.3279 134.029Z" fill="black" fill-opacity="0.2"/>
<path d="M166.537 112.9C166.133 113.194 166.133 113.194 166.133 113.194C166.132 113.194 166.132 113.193 166.132 113.193C166.131 113.192 166.131 113.191 166.129 113.19C166.127 113.186 166.124 113.182 166.119 113.175C166.11 113.162 166.095 113.143 166.077 113.117C166.039 113.066 165.982 112.99 165.908 112.89C165.759 112.69 165.538 112.397 165.251 112.023C164.677 111.274 163.838 110.204 162.784 108.92C160.676 106.35 157.705 102.926 154.257 99.5031C150.808 96.0786 146.891 92.6675 142.891 90.1154C138.882 87.5579 134.839 85.8965 131.127 85.8965L131.127 84.8965C135.118 84.8965 139.354 86.673 143.428 89.2724C147.512 91.8772 151.485 95.342 154.962 98.7934C158.441 102.247 161.434 105.698 163.557 108.285C164.619 109.579 165.464 110.658 166.044 111.414C166.334 111.792 166.558 112.089 166.709 112.292C166.785 112.394 166.843 112.472 166.882 112.525C166.901 112.551 166.916 112.571 166.926 112.585C166.931 112.592 166.935 112.597 166.937 112.6C166.939 112.602 166.94 112.603 166.94 112.604C166.941 112.605 166.941 112.605 166.941 112.605C166.941 112.606 166.941 112.606 166.537 112.9ZM131.127 85.8965C127.413 85.8965 123.388 87.5576 119.136 90.122C114.892 92.6826 110.49 96.1007 106.023 99.5442C101.567 102.979 97.0482 106.437 92.6065 109.034C88.1693 111.629 83.7517 113.4 79.4975 113.4L79.4975 112.4C83.4878 112.4 87.7201 110.733 92.1017 108.171C96.4788 105.611 100.948 102.194 105.412 98.7522C109.865 95.3199 114.316 91.8621 118.62 89.2658C122.917 86.6733 127.136 84.8965 131.127 84.8965L131.127 85.8965ZM79.4975 113.4C75.246 113.4 70.7116 111.631 66.1206 109.038C61.5232 106.442 56.8108 102.985 52.2016 99.5491C47.5807 96.1047 43.0676 92.6846 38.8317 90.1217C34.5842 87.5518 30.6972 85.8965 27.3279 85.8965L27.3279 84.8965C30.9866 84.8965 35.0737 86.6792 39.3494 89.2661C43.6367 91.8601 48.1958 95.3159 52.7992 98.7473C57.4143 102.187 62.0783 105.607 66.6123 108.167C71.1527 110.731 75.5047 112.4 79.4975 112.4L79.4975 113.4ZM27.3279 85.8965C23.947 85.8965 19.5641 87.561 14.837 90.1331C10.1285 92.695 5.14969 96.1169 0.597886 99.5475C-3.95201 102.977 -8.06523 106.407 -11.0415 108.981C-12.5294 110.267 -13.7326 111.339 -14.5634 112.089C-14.9788 112.464 -15.3011 112.759 -15.5193 112.959C-15.6284 113.06 -15.7115 113.136 -15.7672 113.188C-15.795 113.214 -15.816 113.233 -15.83 113.246C-15.837 113.253 -15.8422 113.258 -15.8457 113.261C-15.8474 113.262 -15.8487 113.264 -15.8495 113.264C-15.85 113.265 -15.8503 113.265 -15.8505 113.265C-15.8506 113.265 -15.8507 113.265 -16.1919 112.9C-16.5331 112.534 -16.5329 112.534 -16.5327 112.534C-16.5324 112.534 -16.5321 112.533 -16.5316 112.533C-16.5306 112.532 -16.5292 112.531 -16.5274 112.529C-16.5237 112.526 -16.5182 112.521 -16.511 112.514C-16.4965 112.5 -16.4751 112.48 -16.4467 112.454C-16.3901 112.402 -16.306 112.324 -16.1959 112.223C-15.9756 112.021 -15.6512 111.724 -15.2335 111.347C-14.3981 110.593 -13.1896 109.516 -11.6956 108.224C-8.70824 105.641 -4.57703 102.196 -0.00399705 98.7489C4.56714 95.3037 9.58981 91.8497 14.359 89.2547C19.1096 86.6699 23.6807 84.8965 27.3279 84.8965L27.3279 85.8965Z" fill="black" fill-opacity="0.2"/>
<path d="M166.537 64.7691C166.133 65.0632 166.133 65.0631 166.133 65.063C166.132 65.0628 166.132 65.0626 166.132 65.0622C166.131 65.0615 166.131 65.0603 166.129 65.0587C166.127 65.0556 166.124 65.0508 166.119 65.0444C166.11 65.0316 166.095 65.0123 166.077 64.9866C166.039 64.9354 165.982 64.859 165.908 64.7592C165.759 64.5594 165.538 64.2658 165.251 63.8917C164.677 63.1434 163.838 62.0733 162.784 60.7888C160.676 58.2191 157.705 54.7947 154.257 51.3722C150.808 47.9477 146.891 44.5366 142.891 41.9846C138.882 39.4271 134.839 37.7656 131.127 37.7656L131.127 36.7656C135.118 36.7656 139.354 38.5421 143.428 41.1415C147.512 43.7464 151.485 47.2111 154.962 50.6625C158.441 54.1158 161.434 57.5673 163.557 60.1545C164.619 61.4484 165.464 62.5271 166.044 63.2829C166.334 63.6608 166.558 63.9581 166.709 64.1612C166.785 64.2628 166.843 64.3409 166.882 64.3937C166.901 64.4201 166.916 64.4403 166.926 64.4539C166.931 64.4607 166.935 64.4659 166.937 64.4694C166.939 64.4712 166.94 64.4725 166.94 64.4734C166.941 64.4739 166.941 64.4743 166.941 64.4745C166.941 64.4748 166.941 64.475 166.537 64.7691ZM131.127 37.7656C127.413 37.7656 123.388 39.4267 119.136 41.9912C114.892 44.5518 110.49 47.9698 106.023 51.4134C101.567 54.8477 97.0482 58.306 92.6065 60.9033C88.1693 63.498 83.7517 65.2691 79.4975 65.2691L79.4975 64.2691C83.4878 64.2691 87.7201 62.6022 92.1017 60.04C96.4788 57.4805 100.948 54.0629 105.412 50.6213C109.865 47.1891 114.316 43.7312 118.62 41.1349C122.917 38.5425 127.136 36.7656 131.127 36.7656L131.127 37.7656ZM79.4975 65.2691C75.246 65.2691 70.7116 63.4998 66.1206 60.907C61.5232 58.3107 56.8108 54.854 52.2016 51.4182C47.5807 47.9738 43.0676 44.5538 38.8317 41.9908C34.5842 39.4209 30.6972 37.7656 27.3279 37.7656L27.3279 36.7656C30.9866 36.7656 35.0737 38.5483 39.3494 41.1353C43.6367 43.7293 48.1958 47.185 52.7992 50.6165C57.4143 54.0566 62.0783 57.4757 66.6123 60.0363C71.1527 62.6004 75.5047 64.2691 79.4975 64.2691L79.4975 65.2691ZM27.3279 37.7656C23.947 37.7656 19.5641 39.4302 14.837 42.0023C10.1285 44.5642 5.14969 47.986 0.597886 51.4167C-3.95201 54.8459 -8.06523 58.2762 -11.0415 60.8499C-12.5294 62.1365 -13.7326 63.2085 -14.5634 63.9585C-14.9788 64.3334 -15.3011 64.6279 -15.5193 64.8284C-15.6284 64.9286 -15.7115 65.0054 -15.7672 65.057C-15.795 65.0828 -15.816 65.1023 -15.83 65.1153C-15.837 65.1218 -15.8422 65.1267 -15.8457 65.1299C-15.8474 65.1315 -15.8487 65.1327 -15.8495 65.1335C-15.85 65.1339 -15.8503 65.1342 -15.8505 65.1344C-15.8506 65.1345 -15.8507 65.1346 -16.1919 64.7691C-16.5331 64.4036 -16.5329 64.4034 -16.5327 64.4032C-16.5324 64.403 -16.5321 64.4026 -16.5316 64.4022C-16.5306 64.4013 -16.5292 64.4 -16.5274 64.3983C-16.5237 64.3948 -16.5182 64.3897 -16.511 64.383C-16.4965 64.3696 -16.4751 64.3496 -16.4467 64.3234C-16.3901 64.2709 -16.306 64.1932 -16.1959 64.092C-15.9756 63.8897 -15.6512 63.5932 -15.2335 63.2162C-14.3981 62.462 -13.1896 61.3853 -11.6956 60.0935C-8.70824 57.5102 -4.57703 54.0647 -0.00399705 50.6181C4.56714 47.1729 9.58981 43.7188 14.359 41.1239C19.1096 38.5391 23.6807 36.7656 27.3279 36.7656L27.3279 37.7656Z" fill="black" fill-opacity="0.2"/>
<path d="M166.537 14.3062C166.133 14.6003 166.133 14.6002 166.133 14.6001C166.132 14.5999 166.132 14.5997 166.132 14.5993C166.131 14.5986 166.131 14.5974 166.129 14.5958C166.127 14.5927 166.124 14.5879 166.119 14.5815C166.11 14.5687 166.095 14.5494 166.077 14.5237C166.039 14.4725 165.982 14.3961 165.908 14.2963C165.759 14.0965 165.538 13.8029 165.251 13.4288C164.677 12.6805 163.838 11.6104 162.784 10.326C160.676 7.75624 157.705 4.33185 154.257 0.909312C150.808 -2.51515 146.891 -5.92628 142.891 -8.47832C138.882 -11.0358 134.839 -12.6973 131.127 -12.6973L131.127 -13.6973C135.118 -13.6973 139.354 -11.9208 143.428 -9.32138C147.512 -6.71652 151.485 -3.25179 154.962 0.199606C158.441 3.65293 161.434 7.1044 163.557 9.69158C164.619 10.9855 165.464 12.0642 166.044 12.82C166.334 13.1979 166.558 13.4952 166.709 13.6983C166.785 13.7999 166.843 13.878 166.882 13.9308C166.901 13.9572 166.916 13.9774 166.926 13.991C166.931 13.9978 166.935 14.003 166.937 14.0065C166.939 14.0083 166.94 14.0096 166.94 14.0105C166.941 14.011 166.941 14.0114 166.941 14.0116C166.941 14.0119 166.941 14.0121 166.537 14.3062ZM131.127 -12.6973C127.413 -12.6973 123.388 -11.0362 119.136 -8.47171C114.892 -5.91113 110.49 -2.49309 106.023 0.950473C101.567 4.38483 97.0482 7.84306 92.6065 10.4404C88.1693 13.0351 83.7517 14.8062 79.4975 14.8062L79.4975 13.8062C83.4878 13.8062 87.7201 12.1394 92.1017 9.57716C96.4788 7.01759 100.948 3.59997 105.412 0.158458C109.865 -3.27384 114.316 -6.73166 118.62 -9.32798C122.917 -11.9204 127.136 -13.6973 131.127 -13.6973L131.127 -12.6973ZM79.4975 14.8062C75.246 14.8062 70.7116 13.0369 66.1206 10.4442C61.5232 7.84783 56.8108 4.39111 52.2016 0.955354C47.5807 -2.48906 43.0676 -5.90914 38.8317 -8.47204C34.5842 -11.042 30.6972 -12.6972 27.3279 -12.6972L27.3279 -13.6972C30.9866 -13.6972 35.0737 -11.9146 39.3494 -9.32763C43.6367 -6.73364 48.1958 -3.27786 52.7992 0.15359C57.4143 3.59369 62.0783 7.01284 66.6123 9.57341C71.1527 12.1376 75.5047 13.8062 79.4975 13.8062L79.4975 14.8062ZM27.3279 -12.6972C23.947 -12.6972 19.5641 -11.0327 14.837 -8.46064C10.1285 -5.8987 5.14969 -2.47688 0.597886 0.953771C-3.95201 4.38299 -8.06523 7.81334 -11.0415 10.387C-12.5294 11.6736 -13.7326 12.7456 -14.5634 13.4956C-14.9788 13.8705 -15.3011 14.165 -15.5193 14.3655C-15.6284 14.4658 -15.7115 14.5425 -15.7672 14.5941C-15.795 14.6199 -15.816 14.6394 -15.83 14.6524C-15.837 14.6589 -15.8422 14.6638 -15.8457 14.667C-15.8474 14.6686 -15.8487 14.6698 -15.8495 14.6706C-15.85 14.671 -15.8503 14.6713 -15.8505 14.6715C-15.8506 14.6716 -15.8507 14.6717 -16.1919 14.3062C-16.5331 13.9407 -16.5329 13.9406 -16.5327 13.9403C-16.5324 13.9401 -16.5321 13.9397 -16.5316 13.9393C-16.5306 13.9384 -16.5292 13.9371 -16.5274 13.9354C-16.5237 13.9319 -16.5182 13.9268 -16.511 13.9201C-16.4965 13.9067 -16.4751 13.8867 -16.4467 13.8605C-16.3901 13.808 -16.306 13.7303 -16.1959 13.6292C-15.9756 13.4268 -15.6512 13.1303 -15.2335 12.7533C-14.3981 11.9992 -13.1896 10.9224 -11.6956 9.63058C-8.70824 7.04734 -4.57703 3.60183 -0.00399701 0.155187C4.56714 -3.29003 9.58981 -6.74407 14.359 -9.33903C19.1096 -11.9238 23.6807 -13.6972 27.3279 -13.6972L27.3279 -12.6972Z" fill="black" fill-opacity="0.2"/>
</svg>
